HIERARCHY
ROOT root
{
	OFFSET 0.000000 0.000000 0.000000
	CHANNELS 6 Xposition Yposition Zposition Zrotation Yrotation Xrotation
	JOINT lhip
	{
		OFFSET 0.058581 -0.082280 -0.017664
		CHANNELS 3 Zrotation Yrotation Xrotation
		JOINT lknee
		{
			OFFSET 0.043451 -0.386469 0.008037
			CHANNELS 3 Zrotation Yrotation Xrotation
			JOINT lankle
			{
				OFFSET -0.014790 -0.426874 -0.037428
				CHANNELS 3 Zrotation Yrotation Xrotation
				JOINT ltoe
				{
					OFFSET 0.041054 -0.060286 0.122042
					CHANNELS 3 Zrotation Yrotation Xrotation
					End Site
					{
						OFFSET 0.000000 0.000000 0.000000
					}
				}
			}
		}
	}
	JOINT rhip
	{
		OFFSET -0.060310 -0.090513 -0.013543
		CHANNELS 3 Zrotation Yrotation Xrotation
		JOINT rknee
		{
			OFFSET -0.043257 -0.383688 -0.004843
			CHANNELS 3 Zrotation Yrotation Xrotation
			JOINT rankle
			{
				OFFSET 0.019056 -0.420046 -0.034562
				CHANNELS 3 Zrotation Yrotation Xrotation
				JOINT rtoe
				{
					OFFSET -0.034840 -0.062106 0.130323
					CHANNELS 3 Zrotation Yrotation Xrotation
					End Site
					{
						OFFSET 0.000000 0.000000 0.000000
					}
				}
			}
		}
	}
	JOINT lowerback
	{
		OFFSET 0.004439 0.124404 -0.038385
		CHANNELS 3 Zrotation Yrotation Xrotation
		JOINT upperback
		{
			OFFSET 0.004488 0.137956 0.026820
			CHANNELS 3 Zrotation Yrotation Xrotation
			JOINT chest
			{
				OFFSET -0.002265 0.056032 0.002855
				CHANNELS 3 Zrotation Yrotation Xrotation
				JOINT lowerneck
				{
					OFFSET -0.013390 0.211636 -0.033468
					CHANNELS 3 Zrotation Yrotation Xrotation
					JOINT upperneck
					{
						OFFSET 0.010113 0.088937 0.050410
						CHANNELS 3 Zrotation Yrotation Xrotation
						End Site
						{
							OFFSET 0.000000 0.000000 0.000000
						}
					}
				}
				JOINT lclavicle
				{
					OFFSET 0.071702 0.114000 -0.018898
					CHANNELS 3 Zrotation Yrotation Xrotation
					JOINT lshoulder
					{
						OFFSET 0.122921 0.045205 -0.019046
						CHANNELS 3 Zrotation Yrotation Xrotation
						JOINT lelbow
						{
							OFFSET 0.255332 -0.015649 -0.022946
							CHANNELS 3 Zrotation Yrotation Xrotation
							JOINT lwrist
							{
								OFFSET 0.265709 0.012698 -0.007375
								CHANNELS 3 Zrotation Yrotation Xrotation
								End Site
								{
									OFFSET 0.000000 0.000000 0.000000
								}
							}
						}
					}
				}
				JOINT rclavicle
				{
					OFFSET -0.082954 0.112472 -0.023707
					CHANNELS 3 Zrotation Yrotation Xrotation
					JOINT rshoulder
					{
						OFFSET -0.113228 0.046853 -0.008472
						CHANNELS 3 Zrotation Yrotation Xrotation
						JOINT relbow
						{
							OFFSET -0.260127 -0.014369 -0.031269
							CHANNELS 3 Zrotation Yrotation Xrotation
							JOINT rwrist
							{
								OFFSET -0.269108 0.006794 -0.006027
								CHANNELS 3 Zrotation Yrotation Xrotation
								End Site
								{
									OFFSET 0.000000 0.000000 0.000000
								}
							}
						}
					}
				}
			}
		}
	}
}
MOTION
Frames: 14
Frame Time: 0.033333
0.068185 -0.259920 0.141574 175.422522 0.847775 -169.883174 4.048968 1.859245 -13.542031 -5.096020 6.206388 11.833994 0.826005 19.845795 -4.549713 0.000000 -0.000000 0.000000 -7.405739 -9.682774 -21.290581 -0.795627 -21.072816 22.242986 0.287345 -12.928491 -2.757258 0.000000 -0.000000 0.000000 4.057641 3.530298 -19.606268 -1.718709 -2.169434 5.478205 -0.773723 0.195541 -0.580829 -16.927119 28.200825 9.647252 -3.986994 36.589445 -5.926929 -1.676478 -14.266454 -5.766189 1.828315 -6.622626 -26.424260 138.873783 -42.660035 -120.437815 -6.329823 -10.798031 -0.983384 -5.078762 9.591465 -5.310675 -6.929780 13.683125 -39.711014 -129.945812 48.843405 -137.637302 13.642159 14.999213 -14.890439 
0.068108 -0.260028 0.141542 175.431762 0.780249 -170.120047 3.957639 2.129558 -13.188165 -5.019357 6.360164 11.694623 0.594793 19.756353 -4.887216 0.000000 -0.000000 0.000000 -7.369821 -9.941870 -21.038110 -1.037384 -21.611301 22.397133 1.208301 -13.467579 -4.088985 0.000000 -0.000000 0.000000 4.715160 3.236016 -18.991454 -1.962650 -2.257641 4.212071 -1.153957 0.488906 0.299970 -17.302403 28.847145 9.791002 -4.081749 36.201503 -6.142577 -1.815496 -13.137204 -6.658295 1.583140 -7.729077 -27.144198 138.892981 -43.898165 -121.511100 -6.929996 -11.429029 -0.335924 -5.412521 9.364969 -5.718400 -6.330133 14.277928 -39.897272 -130.315530 49.283087 -138.022058 13.924912 14.885858 -14.636538 
0.067711 -0.260033 0.141896 175.381508 0.752355 -170.059212 3.865319 2.192953 -13.279079 -5.016845 6.332467 11.722635 0.069697 19.956454 -4.823663 0.000000 -0.000000 0.000000 -7.411721 -10.056598 -21.185398 -1.243755 -21.937425 22.684300 2.315534 -14.022759 -5.768799 0.000000 -0.000000 0.000000 4.573638 3.249196 -19.252753 -2.039845 -2.283931 4.355332 -1.024841 0.487854 0.443471 -17.820300 28.879558 9.897743 -3.958129 36.243724 -7.018471 -2.193548 -13.280706 -6.954013 2.212748 -7.518843 -27.126137 138.622334 -44.088368 -122.133127 -6.365525 -11.562651 0.622046 -5.249170 9.569876 -5.904265 -6.611319 13.762370 -39.718950 -130.022534 49.323660 -138.352280 13.591686 14.998380 -14.276631 
0.067167 -0.260455 0.142619 175.428370 0.485532 -169.607114 3.891581 1.996493 -13.857411 -5.061977 6.171032 11.803592 -0.717017 20.570358 -5.881068 0.000000 -0.000000 0.000000 -7.296301 -10.052083 -21.845885 -1.390547 -22.313321 23.148765 3.137614 -14.964160 -7.788159 0.000000 -0.000000 0.000000 4.532878 3.356216 -20.084532 -2.090672 -2.378605 4.678068 -1.031368 0.403017 0.564487 -18.051643 28.880965 9.657038 -3.625464 36.514309 -6.749253 -2.686358 -13.436001 -6.992300 3.100388 -7.513163 -27.137962 138.157677 -44.358482 -122.325793 -4.250371 -11.537131 2.250684 -5.248757 9.609085 -6.112922 -6.765163 13.308020 -39.366966 -129.734424 49.221781 -138.635821 12.405599 15.278264 -14.757733 
0.066859 -0.260436 0.142943 175.446418 0.366874 -169.529078 3.883034 1.947290 -13.984406 -5.046700 6.136033 11.810221 -0.665618 20.732938 -6.419403 0.000000 -0.000000 0.000000 -7.290804 -10.074444 -21.942789 -1.381489 -22.374018 23.149374 3.271751 -15.018261 -7.680829 0.000000 -0.000000 0.000000 4.548688 3.342125 -20.134178 -2.078590 -2.433169 4.577385 -1.038622 0.369131 0.635842 -18.136909 28.877719 9.633912 -3.651310 36.599146 -6.791378 -2.681116 -13.488176 -6.933735 3.145102 -7.374813 -27.116597 138.073851 -44.308139 -122.334638 -4.183681 -11.600197 2.132979 -5.299572 9.611639 -6.103067 -6.737321 13.254210 -39.397135 -129.815926 49.266614 -138.596421 12.245430 15.189831 -14.698157 
0.066744 -0.260534 0.142980 175.485262 0.325168 -169.499394 3.892092 2.037241 -13.948845 -5.052532 6.255936 11.685308 -0.873514 20.833631 -6.881067 0.000000 -0.000000 0.000000 -7.250107 -10.074005 -22.009107 -1.397151 -22.566436 23.198941 3.376724 -15.109161 -7.724755 0.000000 -0.000000 0.000000 4.548131 3.289306 -20.188966 -2.050945 -2.445037 4.443772 -1.001929 0.363917 0.754577 -18.244916 28.986544 9.687432 -3.835659 36.630403 -7.021646 -2.721910 -13.368310 -7.002454 3.163443 -7.435963 -27.258697 138.078362 -44.509034 -122.468476 -4.086821 -11.681712 2.016074 -5.327172 9.589483 -6.095980 -6.748825 13.333147 -39.499953 -129.894136 49.402971 -138.684811 12.003331 15.262423 -14.798699 
0.066841 -0.260508 0.142844 175.546598 0.307636 -169.582391 3.965861 2.192658 -13.893003 -5.131177 6.120030 11.784711 -1.033300 20.880916 -7.300457 0.000000 -0.000000 0.000000 -7.161320 -10.180379 -21.929861 -1.399963 -22.835224 23.155246 3.453710 -15.154575 -7.571913 0.000000 -0.000000 0.000000 4.591586 3.278780 -20.161843 -2.018415 -2.487374 4.558351 -1.052182 0.362611 0.739561 -18.181676 29.045272 9.585205 -3.772372 36.566132 -6.900381 -2.696108 -13.202628 -7.032708 3.052771 -7.629292 -27.363480 138.102732 -44.504334 -122.567320 -4.336319 -11.571816 2.208603 -5.361274 9.548293 -6.061797 -6.688375 13.373122 -39.585030 -129.909275 49.337396 -138.728985 11.958917 15.348820 -14.843423 
0.066976 -0.260522 0.142785 175.543784 0.333265 -169.697231 3.980393 2.236177 -13.780898 -5.166581 6.187049 11.815847 -1.074047 20.899767 -7.463767 0.000000 -0.000000 0.000000 -7.143198 -10.195375 -21.789814 -1.416962 -22.897357 23.082542 3.398208 -15.151765 -7.488183 0.000000 -0.000000 0.000000 4.562877 3.270574 -20.031708 -1.998686 -2.491704 4.628670 -1.044352 0.350307 0.679673 -18.202256 29.113574 9.657009 -3.874514 36.483329 -7.119624 -2.642456 -13.170306 -7.003058 3.040814 -7.611900 -27.324205 138.019049 -44.439413 -122.438550 -4.264480 -11.642868 2.210691 -5.361142 9.565410 -6.108350 -6.663694 13.401762 -39.520994 -129.886649 49.306883 -138.652284 11.871233 15.386297 -14.897840 
0.067080 -0.260842 0.142869 175.603639 0.268444 -169.685847 4.031687 2.301156 -13.889593 -5.179986 6.253777 11.928139 -1.354096 21.133958 -7.731126 0.000000 -0.000000 0.000000 -7.008204 -10.133965 -21.750384 -1.416851 -23.071907 22.876751 3.385959 -15.289292 -7.393023 0.000000 -0.000000 0.000000 4.631524 3.290463 -20.041161 -2.016200 -2.538043 4.739010 -1.105760 0.346903 0.619145 -18.278634 29.170385 9.702503 -3.779819 36.417172 -7.334616 -2.648615 -13.167193 -6.944138 3.221591 -7.632304 -27.419354 137.799487 -44.488850 -122.364301 -4.286222 -11.658080 2.087824 -5.433120 9.604064 -6.097412 -6.670471 13.306529 -39.580011 -129.833912 49.297026 -138.583703 11.649861 15.421116 -15.053882 
0.066971 -0.260817 0.142852 175.580323 0.275654 -169.768623 3.988034 2.340218 -13.777852 -5.177699 6.295738 11.897028 -1.415217 21.148262 -7.829492 0.000000 -0.000000 0.000000 -7.023977 -10.200967 -21.683393 -1.410300 -23.104832 22.862237 3.512034 -15.279902 -7.379863 0.000000 -0.000000 0.000000 4.615758 3.271934 -19.917645 -2.013632 -2.544097 4.687772 -1.087511 0.349892 0.634948 -18.288158 29.209577 9.759901 -3.749716 36.433646 -7.331177 -2.629372 -13.151751 -6.900524 3.196023 -7.626647 -27.416892 137.778581 -44.449140 -122.325626 -4.289675 -11.675462 2.096008 -5.442646 9.614009 -6.053364 -6.671040 13.324134 -39.615150 -129.838158 49.286659 -138.539970 11.628314 15.413174 -15.002166 
0.066789 -0.261000 0.143043 175.499237 0.280056 -169.955326 3.860590 2.422146 -13.605925 -5.176623 6.478317 11.951237 -1.606686 21.228442 -8.348216 0.000000 -0.000000 0.000000 -7.176761 -10.423769 -21.542793 -1.359631 -23.188837 22.954254 3.728927 -15.221492 -7.421874 0.000000 -0.000000 0.000000 4.611678 3.272222 -19.647263 -2.054934 -2.563020 4.699997 -1.143603 0.323545 0.688408 -18.238128 29.331873 9.642072 -3.905649 36.599300 -7.212336 -2.548256 -13.061720 -6.900627 3.163405 -7.687326 -27.399861 137.625971 -44.309327 -122.151160 -4.333977 -11.662345 2.198764 -5.491578 9.559485 -6.082709 -6.594731 13.406233 -39.579557 -129.747297 49.076833 -138.505630 11.526184 15.570950 -15.116641 
0.066823 -0.261038 0.143163 175.473085 0.361048 -169.978024 3.836891 2.436343 -13.585403 -5.192023 6.569484 11.965929 -1.730023 21.295815 -8.540438 0.000000 -0.000000 0.000000 -7.196634 -10.400897 -21.543416 -1.337418 -23.028262 22.958420 3.742372 -15.203082 -7.493632 0.000000 -0.000000 0.000000 4.576686 3.260447 -19.585082 -2.028165 -2.568103 4.739841 -1.155122 0.337053 0.648401 -18.095724 29.323588 9.512699 -3.867284 36.780204 -6.702659 -2.587116 -12.921932 -6.852561 3.292637 -7.712326 -27.417976 137.556349 -44.282163 -122.132091 -4.352490 -11.572887 2.223655 -5.428720 9.511328 -6.005067 -6.742496 13.560246 -39.630484 -129.656352 49.104111 -138.339525 11.517285 15.453812 -14.888299 
0.066577 -0.261060 0.143353 175.516233 0.365467 -170.147972 3.838997 2.504586 -13.479001 -5.200867 6.450549 12.024901 -1.975855 21.552864 -9.095178 0.000000 -0.000000 0.000000 -7.158884 -10.277032 -21.384366 -1.390380 -22.814849 22.933510 3.885914 -15.296599 -7.557988 0.000000 -0.000000 0.000000 4.679470 3.316146 -19.235135 -2.014196 -2.558350 4.522858 -1.154291 0.350456 0.531841 -18.082179 29.249753 9.832867 -3.439430 36.949246 -6.177124 -2.834553 -13.056868 -6.466211 3.573850 -7.648470 -27.574627 137.429858 -44.369013 -122.015210 -4.113841 -11.670355 2.018708 -5.547338 9.522588 -5.679404 -6.754600 13.471994 -39.880405 -129.668833 49.148097 -138.330966 11.235185 15.483545 -15.131965 
0.066286 -0.261298 0.143402 175.643807 0.121297 -170.059801 3.996151 2.436236 -13.683806 -5.209986 6.293110 12.176652 -2.268007 21.605730 -9.471848 0.000000 -0.000000 0.000000 -7.044486 -10.406227 -21.433162 -1.332804 -22.802122 22.974548 3.783368 -15.252408 -7.555580 0.000000 -0.000000 0.000000 4.841124 3.260481 -19.497422 -1.979033 -2.699821 4.561162 -1.211062 0.331937 0.669128 -18.243595 29.234551 9.763443 -3.316046 36.895554 -6.179231 -2.882713 -13.031259 -6.227122 3.647005 -7.564351 -27.832579 137.410843 -44.337074 -122.142153 -4.066308 -11.679737 2.005051 -5.621772 9.526470 -5.352382 -6.857907 13.376027 -40.291215 -129.652359 49.161545 -138.311691 11.132278 15.568612 -15.102154 
